{"glyphs":{"0":{"ha":688,"x_min":0,"x_max":0,"o":""},"1":{"ha":688,"x_min":0,"x_max":0,"o":""},"2":{"ha":688,"x_min":0,"x_max":0,"o":""},"3":{"ha":688,"x_min":0,"x_max":0,"o":""},"4":{"ha":688,"x_min":0,"x_max":0,"o":""},"5":{"ha":688,"x_min":0,"x_max":0,"o":""},"6":{"ha":688,"x_min":0,"x_max":0,"o":""},"7":{"ha":688,"x_min":0,"x_max":0,"o":""},"8":{"ha":688,"x_min":0,"x_max":0,"o":""},"9":{"ha":688,"x_min":0,"x_max":0,"o":""}," ":{"ha":345,"x_min":0,"x_max":0,"o":""},"!":{"ha":456,"x_min":0,"x_max":0,"o":""},"\"":{"ha":456,"x_min":0,"x_max":0,"o":""},"#":{"ha":906,"x_min":0,"x_max":0,"o":""},"$":{"ha":688,"x_min":0,"x_max":0,"o":""},"%":{"ha":1092,"x_min":0,"x_max":0,"o":""},"&":{"ha":1141,"x_min":0,"x_max":0,"o":""},"'":{"ha":235,"x_min":0,"x_max":0,"o":""},"(":{"ha":514,"x_min":0,"x_max":0,"o":""},")":{"ha":514,"x_min":0,"x_max":0,"o":""},"*":{"ha":694,"x_min":0,"x_max":0,"o":""},"+":{"ha":688,"x_min":0,"x_max":0,"o":""},",":{"ha":378,"x_min":0,"x_max":0,"o":""},"-":{"ha":454,"x_min":0,"x_max":0,"o":""},".":{"ha":378,"x_min":0,"x_max":0,"o":""},"/":{"ha":386,"x_min":0,"x_max":0,"o":""},":":{"ha":378,"x_min":0,"x_max":0,"o":""},";":{"ha":378,"x_min":0,"x_max":0,"o":""},"<":{"ha":688,"x_min":0,"x_max":0,"o":""},"=":{"ha":688,"x_min":0,"x_max":0,"o":""},">":{"ha":688,"x_min":0,"x_max":0,"o":""},"?":{"ha":507,"x_min":0,"x_max":0,"o":""},"@":{"ha":1369,"x_min":0,"x_max":0,"o":""},"A":{"ha":1771,"x_min":14,"x_max":1750,"o":"m 774 1122 l 994 1122 q 1037 1084 1037 1114 l 1037 838 q 996 797 1031 797 l 958 797 l 958 767 l 1658 767 q 1748 691 1687 767 l 1750 672 l 1750 536 q 1696 455 1750 496 q 1650 428 1676 428 l 1379 428 l 1379 325 q 1330 249 1379 286 q 1270 211 1301 211 l 1270 127 q 1224 48 1270 79 q 1175 10 1194 10 l 1156 10 l 1151 13 q 1061 -93 1095 -93 q 901 -142 932 -142 l 446 -142 q 397 -117 426 -142 q 199 -55 229 -71 q 106 -14 199 -41 q 17 40 17 16 q 14 54 14 45 l 14 705 q 60 751 20 751 l 185 751 l 185 772 q 229 819 192 819 l 329 819 l 329 848 q 383 895 329 892 l 473 895 l 473 930 q 516 968 473 960 l 676 968 l 676 981 q 703 1038 676 1027 q 728 1046 728 1041 l 728 1065 q 774 1122 728 1122 m 820 1030 l 820 992 q 768 949 814 949 l 768 913 q 722 876 768 883 l 565 876 l 565 857 q 524 802 559 802 l 421 802 l 421 772 q 372 726 421 734 l 277 726 l 277 702 q 237 659 269 659 l 106 659 l 106 89 q 242 37 106 83 q 272 16 261 28 q 475 -50 463 -39 l 899 -50 q 1031 -3 913 -50 l 1048 21 l 1048 24 l 885 24 q 836 70 836 31 q 877 116 846 116 l 1137 116 q 1159 111 1149 116 l 1175 130 l 1175 227 l 1002 227 q 961 273 961 238 q 1015 319 961 315 l 1213 319 q 1257 306 1238 319 l 1286 338 l 1286 428 l 972 428 q 918 469 918 433 l 918 477 q 961 520 924 520 l 1628 520 q 1658 550 1632 520 l 1658 653 q 1628 675 1643 675 l 698 675 q 644 715 644 680 l 644 724 q 682 767 651 767 l 866 767 l 866 843 q 923 889 866 889 l 945 889 l 945 1030 l 820 1030 z "},"B":{"ha":1607,"x_min":16,"x_max":1440,"o":"m 16 1150 l 1440 1150 l 1440 -275 l 16 -275 l 16 1150 m 553 823 l 841 533 l 841 531 l 269 531 l 269 347 l 845 347 l 553 52 l 802 52 q 1187 438 971 219 l 806 821 q 640 823 702 823 l 553 823 z "},"C":{"ha":1009,"x_min":0,"x_max":899,"o":"m 460 1145 l 635 1145 q 899 882 775 1007 q 633 615 764 744 l 460 615 l 460 617 l 658 816 l 65 816 l 65 945 l 659 945 l 460 1145 m 266 530 l 441 530 l 241 330 l 834 330 l 834 201 l 241 201 l 441 0 l 266 0 q 0 266 128 136 l 266 530 z "},"D":{"ha":2045,"x_min":0,"x_max":1959,"o":"m 467 890 l 480 890 q 543 827 543 876 l 543 811 q 458 705 543 779 l 271 515 l 1693 515 q 1424 789 1424 785 q 1419 814 1419 807 l 1419 827 q 1481 890 1433 890 l 1495 890 q 1590 817 1528 890 q 1959 448 1824 585 l 1959 442 q 1522 8 1529 8 q 1495 0 1508 0 l 1484 0 q 1419 68 1430 0 l 1419 76 q 1487 165 1419 109 l 1693 374 l 271 374 q 537 103 536 109 q 543 79 543 85 l 543 62 q 480 0 528 0 l 472 0 q 377 68 432 0 q 0 445 132 309 q 439 882 432 882 q 467 890 454 890 z "},"E":{"ha":1456,"x_min":-5,"x_max":1413,"o":"m 704 1145 q 1413 436 1073 779 q 704 -273 1047 67 q -5 436 335 93 q 704 1145 361 805 m 667 709 l 894 480 l 294 480 l 294 392 l 894 392 l 667 163 l 730 103 q 1062 436 912 283 q 730 769 882 618 l 728 769 q 667 709 725 768 z "},"F":{"ha":1607,"x_min":0,"x_max":1425,"o":"m 0 1156 l 1425 1156 l 1425 -269 l 0 -269 l 0 1156 m 165 1048 q 772 439 660 553 q 172 -162 498 167 l 732 -162 q 1337 444 1033 136 q 728 1048 976 802 l 165 1048 z "},"G":{"ha":1852,"x_min":24,"x_max":1724,"o":"m 1025 1134 q 1116 1042 1116 1119 q 1040 953 1116 975 l 1017 953 q 938 1019 966 953 q 935 1047 935 1036 q 1019 1131 952 1131 q 1025 1134 1019 1134 m 1226 930 l 1231 930 q 1316 863 1291 930 q 1318 843 1318 853 l 1318 830 q 1226 749 1299 749 q 1139 823 1164 749 q 1137 838 1139 838 q 1226 930 1152 930 m 1430 728 q 1520 656 1495 728 l 1522 639 q 1430 547 1508 547 q 1341 636 1341 559 l 1341 639 q 1420 728 1341 707 l 1430 728 m 118 524 q 202 445 184 524 l 202 425 q 144 350 202 378 q 116 345 134 345 l 103 345 q 29 401 60 345 q 24 429 24 411 l 24 439 q 98 524 24 503 l 118 524 m 404 524 q 488 455 465 524 q 491 437 488 447 q 412 345 491 366 l 397 345 q 312 412 336 345 q 310 432 310 421 l 310 437 q 381 524 310 499 l 404 524 m 698 524 q 774 455 749 524 q 777 432 777 441 q 690 345 761 345 l 682 345 q 598 414 621 345 q 595 435 595 424 q 667 524 595 499 l 698 524 m 968 524 l 983 524 q 1057 465 1029 524 q 1063 437 1063 455 l 1063 435 q 999 348 1063 374 q 976 345 985 345 l 963 345 q 886 409 912 345 q 882 437 882 422 q 968 524 897 524 m 1264 524 q 1349 450 1326 524 l 1349 425 q 1274 345 1349 370 l 1249 345 q 1175 401 1206 345 q 1170 429 1170 411 l 1170 439 q 1244 524 1170 503 l 1264 524 m 1630 524 l 1645 524 q 1716 470 1687 524 q 1724 435 1724 453 q 1657 348 1724 372 q 1637 345 1647 345 l 1630 345 q 1548 409 1571 345 q 1543 437 1543 422 q 1609 522 1543 496 q 1630 524 1619 524 m 1430 322 l 1433 322 q 1522 230 1508 322 q 1456 146 1522 171 q 1428 141 1442 141 q 1346 202 1375 141 q 1341 230 1341 212 l 1341 233 q 1430 322 1354 322 m 1231 121 q 1318 46 1292 121 l 1318 26 q 1257 -56 1318 -31 q 1229 -61 1246 -61 l 1226 -61 q 1139 11 1164 -61 q 1137 28 1139 28 q 1203 115 1137 90 q 1231 121 1217 121 m 1029 -84 q 1114 -153 1090 -84 q 1116 -176 1116 -166 q 1045 -262 1116 -237 l 1014 -262 q 938 -193 963 -262 q 935 -170 935 -180 q 1009 -84 935 -109 l 1029 -84 z "},"H":{"ha":1913,"x_min":0,"x_max":1907,"o":"m 1356 830 q 1891 722 1789 830 q 1907 684 1907 691 l 1907 673 q 1866 597 1902 597 q 1402 608 1539 608 l 1394 608 q 1294 545 1337 589 l 1351 532 q 1392 475 1392 505 q 1348 399 1392 439 q 1313 309 1313 357 l 1313 247 q 1245 144 1313 187 l 1248 130 l 1248 127 q 1180 100 1248 100 l 369 100 q 190 328 190 220 l 190 445 q 323 559 269 537 q 496 629 386 602 q 648 673 648 652 q 686 738 661 673 q 776 787 709 771 q 1356 830 827 815 m 182 681 l 203 605 l 201 605 q 79 377 79 543 l 79 369 q 165 90 79 169 q 206 79 191 79 l 206 0 q 3 301 39 0 q 0 369 0 346 l 0 377 q 165 675 0 586 q 182 681 174 681 z "},"I":{"ha":1493,"x_min":19,"x_max":1421,"o":"m 709 1153 l 730 1153 q 1221 943 1005 1153 q 1404 614 1356 805 q 1421 473 1421 531 l 1421 431 q 1263 7 1421 212 q 1114 -127 1163 -103 q 730 -249 936 -249 l 713 -249 q 195 -14 417 -249 q 19 450 19 192 l 19 454 q 197 920 19 713 q 359 1052 307 1031 q 709 1153 524 1153 m 602 857 l 602 47 q 1007 452 800 242 q 602 857 812 650 z "},"J":{"ha":1364,"x_min":5,"x_max":1304,"o":"m 646 1120 l 665 1120 q 1063 977 878 1120 q 1187 843 1164 888 q 1253 726 1230 784 q 1304 508 1304 602 l 1304 430 q 1205 118 1304 289 q 1090 -16 1173 64 q 663 -182 897 -182 l 646 -182 q 157 48 368 -182 q 5 450 5 241 l 5 488 q 151 882 5 693 q 277 1001 220 960 q 646 1120 453 1120 m 496 821 l 759 557 l 759 555 l 233 555 l 233 385 l 761 385 l 761 383 l 496 117 l 724 117 q 1076 469 886 276 q 724 821 917 631 l 496 821 z "},"K":{"ha":1495,"x_min":38,"x_max":1436,"o":"m 565 1130 l 569 1130 q 751 956 686 1130 q 552 616 643 785 q 385 709 534 622 q 262 777 277 771 q 349 933 267 798 q 444 1081 397 1028 q 565 1130 496 1130 m 884 1130 l 918 1130 q 1072 1098 1053 1130 q 1149 950 1088 1076 q 1159 937 1152 950 q 1257 990 1189 951 q 1265 992 1260 992 l 1267 992 q 1121 741 1185 856 q 1098 705 1099 705 q 781 709 860 709 q 857 755 799 728 l 863 764 q 692 1079 753 984 q 628 1124 654 1118 l 628 1126 q 884 1130 711 1130 m 1267 724 q 1411 457 1305 659 q 1436 389 1436 426 q 1333 186 1436 334 q 1244 32 1333 182 q 1238 15 1244 31 l 1233 15 l 1233 17 q 1127 283 1233 109 q 977 557 977 549 l 1267 724 m 42 648 l 368 648 q 514 362 481 428 l 512 362 q 431 406 437 406 q 256 108 387 336 q 235 24 247 108 l 235 21 q 237 0 237 3 l 237 -2 l 235 -2 q 83 273 172 102 q 38 383 38 338 q 119 540 38 438 q 138 580 138 574 q 49 637 116 598 l 42 646 l 42 648 m 930 304 l 932 283 l 932 201 q 1015 197 963 197 l 1168 197 q 1223 53 1223 96 l 1223 34 q 1079 -137 1223 -96 q 998 -146 1034 -146 q 932 -142 979 -146 q 928 -201 928 -189 q 930 -271 930 -240 l 926 -271 q 768 17 839 -125 q 905 260 805 88 q 930 304 928 304 m 580 191 l 696 191 l 696 189 q 694 -142 696 123 l 692 -142 q 480 -148 504 -148 q 262 -63 311 -148 q 243 13 243 -25 q 311 189 243 91 q 580 191 483 191 z "},"L":{"ha":1165,"x_min":0,"x_max":1126,"o":"m 549 1165 l 568 1165 q 982 967 795 1165 q 1126 579 1126 794 q 932 146 1126 331 q 551 0 762 0 l 541 0 q 79 236 253 0 q 0 392 28 307 l 698 392 l 698 209 q 848 348 722 219 q 985 486 848 355 q 1081 583 1081 577 q 967 692 1081 591 q 705 953 766 902 l 698 958 l 698 771 l 0 771 l 0 773 q 75 923 16 825 q 365 1137 181 1078 q 549 1165 466 1165 z "},"M":{"ha":1444,"x_min":4,"x_max":1393,"o":"m 587 1090 q 836 1029 708 1090 q 735 812 766 850 q 584 847 659 847 l 565 847 q 306 715 420 847 q 242 519 242 623 l 242 507 q 405 220 242 325 q 577 173 488 173 q 754 220 664 173 l 754 222 q 659 392 733 271 q 631 453 631 442 l 631 456 q 713 453 702 456 q 938 456 846 456 l 1112 456 q 1393 451 1259 456 q 1013 -212 1294 275 l 1008 -212 q 961 -127 1005 -209 q 886 5 910 -44 l 879 12 q 577 -70 726 -70 q 183 88 351 -70 q 49 288 90 185 q 4 467 4 409 l 4 555 q 117 857 4 701 q 587 1090 313 1090 z "},"N":{"ha":1527,"x_min":14,"x_max":1411,"o":"m 702 1143 l 723 1143 q 1149 991 951 1143 q 1266 871 1225 926 q 1411 448 1411 677 l 1411 443 q 1210 -46 1411 168 q 721 -253 993 -253 l 702 -253 q 213 -44 429 -253 q 64 182 102 77 q 14 425 14 311 l 14 466 q 171 888 14 685 q 307 1016 245 972 q 702 1143 495 1143 m 117 446 q 307 10 117 197 q 543 -125 418 -89 q 690 -149 630 -149 l 729 -149 q 1118 10 936 -149 q 1306 435 1306 199 l 1306 456 q 1120 878 1306 690 q 729 1039 937 1039 l 694 1039 q 328 899 503 1039 q 117 446 117 708 m 744 782 l 750 782 q 829 721 778 782 q 1074 475 1074 480 q 1082 446 1080 464 q 1022 361 1082 412 q 773 115 779 115 q 750 109 759 109 l 744 109 q 685 168 685 117 l 685 174 q 744 251 685 201 l 876 385 l 338 385 q 275 422 290 385 q 271 439 271 430 l 271 452 q 323 504 282 504 q 338 506 323 506 l 876 506 q 690 696 690 692 q 685 717 685 713 l 685 723 q 744 782 692 782 z "},"O":{"ha":1504,"x_min":25,"x_max":1398,"o":"m 667 1088 q 920 1033 800 1088 l 924 1027 l 924 1020 q 846 825 895 941 q 835 822 843 825 q 669 857 751 857 l 667 857 q 448 793 553 857 l 448 791 q 531 709 531 716 l 531 707 q 469 688 531 688 l 155 669 q 142 682 149 669 q 206 1056 199 1029 l 214 1061 l 221 1061 q 254 1025 233 1061 l 297 965 q 667 1088 466 1088 m 1107 786 l 1110 786 q 1394 536 1150 753 l 1398 527 q 1380 510 1392 510 q 1273 505 1354 510 q 1275 456 1273 483 q 1201 161 1275 306 q 1114 37 1171 104 q 997 -62 1027 -54 q 939 8 986 -61 q 865 112 865 102 l 865 119 l 920 167 q 1044 454 1044 289 l 1044 467 l 935 439 q 922 456 922 444 q 1059 718 931 479 q 1095 782 1092 779 q 1107 786 1101 786 m 242 444 q 261 376 256 444 q 352 197 285 275 q 461 110 427 122 q 463 112 463 110 q 493 220 486 201 q 505 223 499 223 l 507 223 q 543 178 519 223 q 709 -90 683 -45 q 710 -96 710 -94 q 661 -122 710 -111 q 342 -228 357 -228 q 329 -211 335 -228 q 380 -105 380 -110 q 206 16 321 -86 q 97 167 124 106 q 25 404 37 281 l 25 406 q 76 425 25 425 q 242 444 218 444 z "},"P":{"ha":1895,"x_min":68,"x_max":1858,"o":"m 478 1116 l 490 1116 q 545 1040 511 1116 q 689 852 583 966 q 905 698 810 743 q 1114 625 1065 625 q 1194 610 1124 618 l 1194 613 l 1168 850 q 1202 878 1177 878 l 1208 878 q 1372 760 1223 878 q 1856 397 1379 759 l 1858 392 l 1858 368 q 1792 304 1858 352 q 1225 -168 1240 -160 l 1199 -168 q 1178 -139 1178 -156 q 1202 108 1178 -112 l 1199 108 q 863 174 1087 108 q 367 471 595 264 q 184 680 227 608 q 68 883 75 838 q 160 949 68 909 q 478 1116 439 1101 z "},"Q":{"ha":1487,"x_min":33,"x_max":1421,"o":"m 715 1156 l 746 1156 q 1192 978 983 1156 q 1421 463 1421 761 q 1192 -53 1421 167 q 1043 -155 1104 -127 q 758 -229 892 -229 l 690 -229 q 370 -134 545 -229 q 68 242 152 2 q 33 446 33 349 l 33 479 q 50 616 33 543 l 289 527 q 283 458 283 496 q 471 95 283 239 q 711 16 592 16 l 741 16 q 1051 155 909 16 q 1172 458 1172 293 q 993 816 1172 668 q 725 903 869 903 q 671 899 699 903 l 667 901 q 490 836 581 889 l 490 834 q 580 747 579 749 l 580 741 q 547 722 580 722 q 174 703 199 703 l 170 701 q 152 718 159 701 q 227 1127 220 1103 q 243 1135 233 1133 q 307 1050 256 1135 q 326 1027 324 1027 q 715 1156 510 1156 z "},"R":{"ha":1525,"x_min":14,"x_max":1498,"o":"m 1027 1161 q 1161 956 1029 1161 q 1291 1021 1287 1021 l 1291 1019 q 1148 694 1148 699 l 773 754 q 913 828 777 758 l 913 830 q 788 1025 788 1021 q 669 822 782 1022 q 602 705 663 813 q 336 830 355 820 l 527 1161 l 1027 1161 m 368 663 q 504 311 402 578 l 502 311 q 368 393 373 393 l 368 391 q 264 186 285 229 l 633 186 l 659 -104 q 336 -106 448 -106 l 275 -106 q 120 163 260 -78 q 25 328 25 325 q 135 546 106 486 l 133 546 q 14 625 35 607 q 368 663 301 656 m 1316 656 l 1318 656 q 1498 317 1322 656 q 1233 -104 1463 268 q 1085 -106 1136 -106 l 1019 -106 q 987 -109 1008 -106 q 977 -251 977 -238 l 972 -253 l 775 42 l 775 46 q 1006 309 778 47 l 1023 326 l 1023 323 q 1010 169 1023 305 q 1116 171 1084 171 l 1204 171 q 1246 173 1217 171 l 1074 495 l 1074 502 q 1316 656 1097 514 z "},"S":{"ha":946,"x_min":0,"x_max":918,"o":"m 518 1126 q 608 1053 544 1126 q 916 743 913 751 l 918 731 l 918 717 q 811 598 918 696 q 534 326 546 328 q 515 321 522 321 q 473 364 473 332 l 473 615 l 224 615 q 220 610 220 614 l 220 0 l 0 0 l 0 596 q 163 825 0 765 q 210 833 197 833 l 222 833 q 224 835 224 833 l 229 833 l 473 833 l 473 1083 q 518 1126 479 1126 z "},"T":{"ha":1168,"x_min":0,"x_max":1097,"o":"m 536 1160 q 1097 802 1082 816 l 1097 800 q 543 445 1080 791 l 540 445 l 540 668 l 538 679 l 269 679 l 269 0 l 0 0 l 0 945 l 536 945 l 536 1160 z "},"U":{"ha":923,"x_min":0,"x_max":814,"o":"m 775 1130 q 814 919 814 928 l 814 916 l 602 874 l 602 876 l 658 960 q 527 981 588 981 q 186 828 330 981 q 69 525 69 692 q 201 205 69 347 q 525 69 341 69 l 525 0 l 505 0 q 172 135 331 0 q 66 268 96 209 q 0 509 0 393 l 0 537 q 133 876 0 718 q 260 979 212 956 q 514 1050 385 1050 l 536 1050 q 701 1021 610 1050 q 775 1130 772 1127 z "},"V":{"ha":1950,"x_min":7,"x_max":1923,"o":"m 1242 1137 q 1350 1058 1284 1137 q 1917 488 1912 500 l 1923 469 l 1923 442 q 1844 342 1923 410 q 1280 -220 1287 -220 l 1261 -225 l 1223 -225 q 1168 -171 1192 -225 q 1166 -155 1168 -159 l 1215 171 l 279 171 q 43 317 136 171 q 7 456 7 388 q 146 697 7 602 q 306 738 214 738 l 1215 738 l 1166 1061 q 1242 1137 1182 1137 z "},"W":{"ha":1480,"x_min":0,"x_max":1432,"o":"m 452 935 q 836 933 479 935 q 916 860 848 933 q 1432 341 1432 348 l 1432 323 q 1359 243 1432 310 q 843 -271 849 -271 l 439 -271 q 422 -241 422 -262 q 477 -179 422 -228 l 818 163 l 32 163 q 0 195 0 163 l 0 467 q 25 499 3 499 l 815 499 q 422 897 422 892 l 422 905 q 452 935 425 935 m 523 876 q 913 481 913 484 l 913 467 q 888 442 909 442 l 60 442 l 60 220 l 893 220 q 918 191 913 220 q 827 90 918 175 l 523 -216 l 818 -216 q 1363 330 1115 79 q 818 876 1069 627 l 523 876 z "},"X":{"ha":2155,"x_min":0,"x_max":2124,"o":"m 1649 947 l 1652 947 q 2124 475 1907 695 l 2124 472 q 1652 0 1872 217 l 1649 0 l 1649 3 q 765 320 1649 256 q 651 326 715 326 l 0 326 l 0 618 l 467 618 q 1340 713 929 618 q 1649 947 1649 802 z "},"Y":{"ha":1927,"x_min":0,"x_max":1891,"o":"m 1470 846 l 1473 846 q 1891 429 1737 585 l 1891 420 q 1470 0 1654 180 l 1470 293 l 0 293 l 0 553 l 1470 553 l 1470 846 z "},"Z":{"ha":1966,"x_min":0,"x_max":1950,"o":"m 1611 673 l 1614 673 q 1950 336 1781 509 q 1614 0 1787 170 l 1611 0 q 1476 117 1482 107 q 1617 258 1483 121 l 570 258 q 491 157 570 253 q 450 109 460 115 l 0 109 q 176 336 11 125 l 0 564 l 456 564 q 575 415 513 486 l 1619 415 l 1476 562 q 1584 651 1487 567 q 1611 673 1598 665 z "},"[":{"ha":514,"x_min":0,"x_max":0,"o":""},"\\":{"ha":386,"x_min":0,"x_max":0,"o":""},"]":{"ha":514,"x_min":0,"x_max":0,"o":""},"^":{"ha":688,"x_min":0,"x_max":0,"o":""},"_":{"ha":694,"x_min":0,"x_max":0,"o":""},"`":{"ha":694,"x_min":0,"x_max":0,"o":""},"a":{"ha":1537,"x_min":0,"x_max":1516,"o":"m 610 692 l 618 692 q 1039 505 701 618 q 1508 366 1257 437 q 1516 350 1516 359 l 1516 334 q 1402 296 1516 320 q 703 54 946 165 q 621 0 659 31 l 600 0 q 586 22 586 7 q 955 206 586 77 q 1310 317 1142 271 l 1310 320 l 27 320 q 0 345 0 325 q 24 369 3 369 l 1316 369 l 1316 372 q 610 635 793 517 q 586 667 586 654 q 610 692 589 692 z "},"b":{"ha":675,"x_min":0,"x_max":529,"o":"m 0 1058 q 529 529 252 809 q 0 0 280 277 l 0 1058 z "},"c":{"ha":1688,"x_min":34,"x_max":1662,"o":"m 972 1145 l 989 1145 q 1084 1074 1025 1145 q 1656 499 1653 509 q 1662 475 1662 481 l 1662 453 q 1564 334 1662 419 q 1016 -212 1024 -211 l 1002 -214 l 962 -214 q 907 -152 924 -214 q 905 -117 905 -138 l 905 179 l 34 179 l 34 749 l 905 749 l 905 1044 q 956 1142 905 1126 l 972 1145 z "},"d":{"ha":1434,"x_min":7,"x_max":1399,"o":"m 243 1098 l 729 1098 q 1399 428 1071 760 l 1399 422 q 732 -245 1084 104 l 246 -245 l 729 241 l 7 241 l 7 610 l 729 610 l 243 1098 z "},"e":{"ha":1773,"x_min":18,"x_max":1746,"o":"m 1044 1090 q 1163 1011 1099 1090 q 1746 428 1421 757 q 1095 -220 1103 -220 q 1063 -231 1077 -231 l 1022 -231 q 941 -155 971 -231 q 938 -125 938 -140 q 1014 -12 938 -73 l 1345 322 l 138 322 q 26 387 56 322 q 18 431 18 413 q 94 528 18 498 q 140 534 116 534 l 1345 534 q 949 935 949 930 q 938 989 938 960 q 1025 1090 938 1061 l 1044 1090 z "},"f":{"ha":1383,"x_min":0,"x_max":1373,"o":"m 448 1172 q 586 1169 536 1169 l 789 1169 q 884 1104 833 1169 q 1367 618 1367 625 q 1373 602 1373 610 l 1373 564 q 1283 461 1373 541 q 825 5 832 5 q 808 0 816 0 l 429 0 q 380 57 395 0 l 380 73 q 461 176 380 106 l 670 388 l 90 388 q 3 434 20 388 l 0 450 l 0 716 q 62 779 14 779 l 670 779 q 385 1069 385 1064 q 377 1101 380 1080 q 448 1172 391 1172 z "},"g":{"ha":937,"x_min":100,"x_max":887,"o":"m 178 1158 q 276 1090 220 1158 q 874 491 874 496 q 887 450 887 472 l 887 443 q 821 347 887 403 q 216 -255 222 -255 q 190 -262 197 -262 l 165 -262 q 104 -211 127 -262 q 100 -190 100 -203 l 100 -188 q 328 250 100 -181 l 429 447 l 429 448 q 100 1079 111 1054 l 100 1083 q 146 1150 100 1126 q 178 1158 156 1156 z "},"h":{"ha":1639,"x_min":0,"x_max":1593,"o":"m 0 1137 l 3 1137 q 969 867 60 1122 l 969 1132 q 1593 568 985 1121 q 971 5 1583 555 l 969 5 l 969 267 l 5 0 l 0 0 l 0 1137 z "},"i":{"ha":1854,"x_min":0,"x_max":1828,"o":"m 1004 1114 l 1006 1114 l 1828 558 l 1828 556 q 1449 298 1792 527 q 1006 0 1020 5 l 1004 0 l 1004 287 l 0 287 l 0 825 l 1004 825 l 1004 1114 z "},"j":{"ha":1364,"x_min":13,"x_max":1348,"o":"m 647 1143 l 650 1143 q 1348 446 1045 751 l 1348 441 q 647 -260 953 43 l 647 -257 q 758 -9 703 -165 q 812 217 812 172 l 13 217 l 13 669 l 814 669 q 753 915 814 713 q 647 1143 706 1036 z "},"k":{"ha":2306,"x_min":28,"x_max":2293,"o":"m 1566 1139 l 1569 1139 q 2293 414 1957 753 q 1566 -313 1974 92 l 1566 149 l 28 149 l 291 414 l 31 677 l 31 680 l 1566 680 l 1566 1139 z "},"l":{"ha":1788,"x_min":14,"x_max":1739,"o":"m 798 1063 l 1739 467 l 1739 464 q 806 -136 814 -136 l 806 19 q 803 255 806 107 l 14 255 l 14 705 l 800 705 q 798 1036 798 917 l 798 1063 z "},"m":{"ha":1064,"x_min":0,"x_max":958,"o":"m 0 1150 l 380 1150 l 958 576 l 958 570 q 387 0 705 316 l 7 0 q 578 572 96 89 q 0 1150 254 893 z "},"n":{"ha":751,"x_min":0,"x_max":639,"o":"m 65 1149 q 152 1086 100 1149 q 632 604 632 610 q 639 581 639 589 l 639 565 q 587 496 639 539 q 94 4 100 4 q 81 0 86 0 l 47 0 q 0 63 0 15 l 0 1084 q 65 1149 8 1149 z "},"o":{"ha":1632,"x_min":31,"x_max":1601,"o":"m 606 1138 l 625 1138 q 758 1062 651 1138 l 1579 517 q 1601 476 1601 493 l 1601 446 q 1444 311 1601 413 q 673 -245 687 -240 l 657 -248 l 627 -248 q 578 -216 602 -248 q 573 -189 573 -194 l 573 -178 q 665 270 573 -163 l 663 270 l 39 229 q 31 636 36 306 l 660 620 q 549 1065 554 1028 l 549 1078 q 606 1138 549 1128 z "},"p":{"ha":1216,"x_min":0,"x_max":1156,"o":"m 209 1118 l 1156 562 l 1156 559 q 244 22 1139 545 q 203 0 215 0 q 0 350 18 316 l 3 350 q 355 556 309 532 l 355 562 q 90 716 338 568 q 0 770 0 767 q 206 1118 195 1103 l 209 1118 z "},"q":{"ha":876,"x_min":143,"x_max":801,"o":"m 143 1056 q 801 398 472 729 q 143 -260 474 69 l 143 -258 q 509 398 502 382 l 509 400 q 143 1056 166 1013 z "},"r":{"ha":1669,"x_min":0,"x_max":1587,"o":"m 0 597 l 1289 597 q 1587 298 1376 513 l 1587 296 q 1291 0 1449 155 l 0 0 l 0 597 z "},"s":{"ha":1183,"x_min":0,"x_max":1136,"o":"m 747 1147 l 760 1147 q 818 1093 793 1147 q 1136 589 822 1091 l 1136 564 q 1108 508 1136 549 l 797 15 q 771 0 781 0 l 736 0 q 699 39 717 0 l 699 58 q 779 197 699 77 q 978 513 793 220 l 978 515 l 68 515 q 2 557 17 515 q 0 572 2 564 q 54 628 11 628 l 980 628 q 701 1072 718 1042 q 699 1091 699 1084 l 699 1098 q 747 1147 710 1147 z "},"t":{"ha":1619,"x_min":7,"x_max":1573,"o":"m 894 1103 q 1573 424 1217 783 q 891 -258 1190 37 l 764 -129 l 1222 331 l 13 331 q 7 336 7 331 l 7 514 l 1222 514 q 764 974 1217 519 q 894 1103 764 978 z "},"u":{"ha":1216,"x_min":0,"x_max":1191,"o":"m 892 610 q 1191 315 900 610 l 1191 293 q 898 0 1045 144 l 882 0 q 871 11 878 0 l 871 16 q 930 84 871 32 l 1128 285 l 11 285 q 0 296 7 285 l 0 312 q 19 323 5 323 l 1128 323 l 871 583 l 871 597 q 892 610 878 610 z "},"v":{"ha":1318,"x_min":0,"x_max":1305,"o":"m 949 952 l 960 952 q 1012 895 1002 952 q 958 836 1003 836 l 949 836 q 898 887 898 846 l 898 901 q 949 952 907 952 m 1050 814 l 1055 814 q 1109 757 1099 814 l 1109 754 q 1061 697 1098 697 l 1047 697 q 996 749 996 707 l 996 765 q 1050 814 996 802 m 1150 675 q 1207 616 1200 675 q 1147 556 1207 566 q 1093 610 1093 569 l 1093 621 q 1150 675 1093 667 m 1248 537 q 1305 480 1305 526 l 1305 475 q 1248 418 1296 418 q 1191 472 1191 427 l 1191 483 q 1248 537 1191 526 m 52 532 l 62 532 q 114 475 104 532 q 54 415 106 415 q 0 469 0 426 l 0 480 q 52 532 9 532 m 233 532 q 285 475 274 532 q 225 415 275 415 q 168 480 176 415 q 220 532 182 532 l 233 532 m 388 532 l 407 532 q 453 486 437 532 l 453 464 q 396 415 453 427 q 339 477 347 415 q 388 532 353 532 m 559 532 l 578 532 q 624 486 608 532 l 624 464 q 567 415 624 427 q 510 477 518 415 q 559 532 523 532 m 732 532 l 749 532 q 795 486 779 532 l 795 469 q 738 415 795 425 q 681 469 681 426 l 681 480 q 732 532 692 532 m 903 532 l 914 532 q 966 469 960 532 q 906 415 966 426 q 852 469 852 426 l 852 480 q 903 532 862 532 m 1074 532 l 1085 532 q 1137 475 1126 532 l 1137 472 q 1077 415 1137 424 q 1023 469 1023 426 l 1023 480 q 1074 532 1032 532 m 1156 396 q 1207 334 1201 396 q 1153 279 1196 279 l 1147 279 q 1093 328 1093 292 l 1093 345 q 1137 396 1093 381 l 1156 396 m 1053 258 q 1109 198 1101 258 q 1058 141 1099 141 l 1047 141 q 996 193 996 151 l 996 209 q 1050 258 996 245 l 1053 258 m 960 117 q 1012 57 1012 109 q 952 0 1012 11 q 898 54 898 13 l 898 71 q 944 117 912 117 l 960 117 z "},"w":{"ha":1831,"x_min":0,"x_max":1782,"o":"m 1044 779 l 1058 779 q 1126 730 1080 779 q 1478 496 1327 551 q 1755 437 1627 437 q 1782 399 1782 416 l 1782 374 q 1728 336 1775 336 q 1245 146 1517 336 q 1077 0 1175 93 l 1039 0 q 1001 46 1009 0 l 1001 49 q 1072 136 1001 81 q 1310 315 1183 240 q 1351 334 1348 334 l 1351 336 l 43 336 q 0 380 0 349 l 0 396 q 49 439 0 430 l 1351 439 l 1351 442 q 1072 637 1257 478 q 1001 724 1001 699 l 1001 730 q 1044 779 1001 766 z "},"x":{"ha":1499,"x_min":10,"x_max":1448,"o":"m 705 1054 q 1448 460 1427 481 q 705 -134 1434 446 q 528 85 696 -128 q 821 316 808 309 l 821 319 l 10 319 l 10 601 l 821 601 l 528 837 q 705 1054 701 1053 z "},"y":{"ha":1531,"x_min":3,"x_max":1487,"o":"m 459 1114 l 866 1114 q 1487 493 1171 812 l 1487 490 q 871 -125 1215 214 l 462 -125 l 928 344 l 3 344 l 3 645 l 926 645 l 459 1114 z "},"z":{"ha":1283,"x_min":89,"x_max":1234,"o":"m 567 1134 q 661 1059 597 1134 q 1229 490 1229 496 q 1234 470 1234 480 l 1234 437 q 1164 353 1234 414 q 592 -217 599 -217 q 572 -222 583 -222 l 537 -222 q 483 -153 483 -205 l 480 -153 l 656 267 l 89 267 l 89 643 l 656 643 q 480 1059 486 1053 q 543 1134 480 1114 l 567 1134 z "},"{":{"ha":688,"x_min":0,"x_max":0,"o":""},"|":{"ha":688,"x_min":0,"x_max":0,"o":""},"}":{"ha":688,"x_min":0,"x_max":0,"o":""},"~":{"ha":688,"x_min":0,"x_max":0,"o":""},"¡":{"ha":456,"x_min":0,"x_max":0,"o":""},"¢":{"ha":772,"x_min":0,"x_max":0,"o":""},"£":{"ha":688,"x_min":0,"x_max":0,"o":""},"¤":{"ha":688,"x_min":0,"x_max":0,"o":""},"¥":{"ha":856,"x_min":0,"x_max":0,"o":""},"¦":{"ha":688,"x_min":0,"x_max":0,"o":""},"§":{"ha":688,"x_min":0,"x_max":0,"o":""},"¨":{"ha":694,"x_min":0,"x_max":0,"o":""},"©":{"ha":1135,"x_min":0,"x_max":0,"o":""},"ª":{"ha":439,"x_min":0,"x_max":0,"o":""},"«":{"ha":640,"x_min":0,"x_max":0,"o":""},"¬":{"ha":688,"x_min":0,"x_max":0,"o":""},"®":{"ha":1135,"x_min":0,"x_max":0,"o":""},"¯":{"ha":454,"x_min":0,"x_max":0,"o":""},"°":{"ha":457,"x_min":0,"x_max":0,"o":""},"±":{"ha":688,"x_min":0,"x_max":0,"o":""},"²":{"ha":688,"x_min":0,"x_max":0,"o":""},"³":{"ha":688,"x_min":0,"x_max":0,"o":""},"´":{"ha":694,"x_min":0,"x_max":0,"o":""},"µ":{"ha":800,"x_min":0,"x_max":0,"o":""},"¶":{"ha":694,"x_min":0,"x_max":0,"o":""},"·":{"ha":345,"x_min":0,"x_max":0,"o":""},"¸":{"ha":694,"x_min":0,"x_max":0,"o":""},"¹":{"ha":688,"x_min":0,"x_max":0,"o":""},"º":{"ha":487,"x_min":0,"x_max":0,"o":""},"»":{"ha":640,"x_min":0,"x_max":0,"o":""},"¼":{"ha":1158,"x_min":0,"x_max":0,"o":""},"½":{"ha":1332,"x_min":0,"x_max":0,"o":""},"¾":{"ha":1158,"x_min":0,"x_max":0,"o":""},"¿":{"ha":507,"x_min":0,"x_max":0,"o":""},"À":{"ha":1044,"x_min":0,"x_max":0,"o":""},"Á":{"ha":1044,"x_min":0,"x_max":0,"o":""},"Â":{"ha":1044,"x_min":0,"x_max":0,"o":""},"Ã":{"ha":1044,"x_min":0,"x_max":0,"o":""},"Ä":{"ha":1044,"x_min":0,"x_max":0,"o":""},"Å":{"ha":1044,"x_min":0,"x_max":0,"o":""},"Æ":{"ha":1436,"x_min":0,"x_max":0,"o":""},"Ç":{"ha":949,"x_min":0,"x_max":0,"o":""},"È":{"ha":781,"x_min":0,"x_max":0,"o":""},"É":{"ha":781,"x_min":0,"x_max":0,"o":""},"Ê":{"ha":781,"x_min":0,"x_max":0,"o":""},"Ë":{"ha":781,"x_min":0,"x_max":0,"o":""},"Ì":{"ha":446,"x_min":0,"x_max":0,"o":""},"Í":{"ha":446,"x_min":0,"x_max":0,"o":""},"Î":{"ha":446,"x_min":0,"x_max":0,"o":""},"Ï":{"ha":446,"x_min":0,"x_max":0,"o":""},"Ð":{"ha":1029,"x_min":0,"x_max":0,"o":""},"Ñ":{"ha":1054,"x_min":0,"x_max":0,"o":""},"Ò":{"ha":1095,"x_min":0,"x_max":0,"o":""},"Ó":{"ha":1095,"x_min":0,"x_max":0,"o":""},"Ô":{"ha":1095,"x_min":0,"x_max":0,"o":""},"Õ":{"ha":1095,"x_min":0,"x_max":0,"o":""},"Ö":{"ha":1095,"x_min":0,"x_max":0,"o":""},"×":{"ha":688,"x_min":0,"x_max":0,"o":""},"Ø":{"ha":1095,"x_min":0,"x_max":0,"o":""},"Ù":{"ha":1018,"x_min":0,"x_max":0,"o":""},"Ú":{"ha":1018,"x_min":0,"x_max":0,"o":""},"Û":{"ha":1018,"x_min":0,"x_max":0,"o":""},"Ü":{"ha":1018,"x_min":0,"x_max":0,"o":""},"Ý":{"ha":836,"x_min":0,"x_max":0,"o":""},"Þ":{"ha":760,"x_min":0,"x_max":0,"o":""},"ß":{"ha":848,"x_min":0,"x_max":0,"o":""},"à":{"ha":625,"x_min":0,"x_max":0,"o":""},"á":{"ha":625,"x_min":0,"x_max":0,"o":""},"â":{"ha":625,"x_min":0,"x_max":0,"o":""},"ã":{"ha":625,"x_min":0,"x_max":0,"o":""},"ä":{"ha":625,"x_min":0,"x_max":0,"o":""},"å":{"ha":625,"x_min":0,"x_max":0,"o":""},"æ":{"ha":986,"x_min":0,"x_max":0,"o":""},"ç":{"ha":614,"x_min":0,"x_max":0,"o":""},"è":{"ha":616,"x_min":0,"x_max":0,"o":""},"é":{"ha":616,"x_min":0,"x_max":0,"o":""},"ê":{"ha":616,"x_min":0,"x_max":0,"o":""},"ë":{"ha":616,"x_min":0,"x_max":0,"o":""},"ì":{"ha":349,"x_min":0,"x_max":0,"o":""},"í":{"ha":349,"x_min":0,"x_max":0,"o":""},"î":{"ha":349,"x_min":0,"x_max":0,"o":""},"ï":{"ha":349,"x_min":0,"x_max":0,"o":""},"ð":{"ha":772,"x_min":0,"x_max":0,"o":""},"ñ":{"ha":751,"x_min":0,"x_max":0,"o":""},"ò":{"ha":685,"x_min":0,"x_max":0,"o":""},"ó":{"ha":685,"x_min":0,"x_max":0,"o":""},"ô":{"ha":685,"x_min":0,"x_max":0,"o":""},"õ":{"ha":685,"x_min":0,"x_max":0,"o":""},"ö":{"ha":685,"x_min":0,"x_max":0,"o":""},"÷":{"ha":688,"x_min":0,"x_max":0,"o":""},"ø":{"ha":685,"x_min":0,"x_max":0,"o":""},"ù":{"ha":718,"x_min":0,"x_max":0,"o":""},"ú":{"ha":718,"x_min":0,"x_max":0,"o":""},"û":{"ha":718,"x_min":0,"x_max":0,"o":""},"ü":{"ha":718,"x_min":0,"x_max":0,"o":""},"ý":{"ha":589,"x_min":0,"x_max":0,"o":""},"þ":{"ha":685,"x_min":0,"x_max":0,"o":""},"ÿ":{"ha":589,"x_min":0,"x_max":0,"o":""},"ı":{"ha":349,"x_min":0,"x_max":0,"o":""},"ˆ":{"ha":694,"x_min":0,"x_max":0,"o":""},"ˇ":{"ha":694,"x_min":0,"x_max":0,"o":""},"ˉ":{"ha":694,"x_min":0,"x_max":0,"o":""},"˘":{"ha":694,"x_min":0,"x_max":0,"o":""},"˙":{"ha":694,"x_min":0,"x_max":0,"o":""},"˚":{"ha":694,"x_min":0,"x_max":0,"o":""},"˛":{"ha":694,"x_min":0,"x_max":0,"o":""},"˜":{"ha":694,"x_min":0,"x_max":0,"o":""},"˝":{"ha":694,"x_min":0,"x_max":0,"o":""},"–":{"ha":751,"x_min":0,"x_max":0,"o":""},"—":{"ha":1389,"x_min":0,"x_max":0,"o":""},"‘":{"ha":378,"x_min":0,"x_max":0,"o":""},"’":{"ha":378,"x_min":0,"x_max":0,"o":""},"‚":{"ha":378,"x_min":0,"x_max":0,"o":""},"“":{"ha":617,"x_min":0,"x_max":0,"o":""},"”":{"ha":617,"x_min":0,"x_max":0,"o":""},"„":{"ha":617,"x_min":0,"x_max":0,"o":""},"†":{"ha":688,"x_min":0,"x_max":0,"o":""},"‡":{"ha":688,"x_min":0,"x_max":0,"o":""},"•":{"ha":694,"x_min":0,"x_max":0,"o":""},"…":{"ha":1389,"x_min":0,"x_max":0,"o":""},"‹":{"ha":428,"x_min":0,"x_max":0,"o":""},"›":{"ha":428,"x_min":0,"x_max":0,"o":""},"⁄":{"ha":232,"x_min":0,"x_max":0,"o":""},"₣":{"ha":688,"x_min":0,"x_max":0,"o":""},"₤":{"ha":688,"x_min":0,"x_max":0,"o":""},"₧":{"ha":1375,"x_min":0,"x_max":0,"o":""},"€":{"ha":688,"x_min":0,"x_max":0,"o":""},"№":{"ha":1540,"x_min":0,"x_max":0,"o":""},"™":{"ha":1015,"x_min":0,"x_max":0,"o":""},"∂":{"ha":688,"x_min":0,"x_max":0,"o":""},"∆":{"ha":733,"x_min":0,"x_max":0,"o":""},"∏":{"ha":1027,"x_min":0,"x_max":0,"o":""},"∑":{"ha":818,"x_min":0,"x_max":0,"o":""},"−":{"ha":688,"x_min":0,"x_max":0,"o":""},"√":{"ha":688,"x_min":0,"x_max":0,"o":""},"∞":{"ha":688,"x_min":0,"x_max":0,"o":""},"∫":{"ha":451,"x_min":0,"x_max":0,"o":""},"≈":{"ha":688,"x_min":0,"x_max":0,"o":""},"≤":{"ha":688,"x_min":0,"x_max":0,"o":""},"≥":{"ha":688,"x_min":0,"x_max":0,"o":""},"":{"ha":728,"x_min":0,"x_max":0,"o":""},"":{"ha":733,"x_min":0,"x_max":0,"o":""}}}
